<?xml version="1.0" encoding="UTF-8"?>
<svg id="Capa_1" xmlns="http://www.w3.org/2000/svg" version="1.1" viewBox="0 0 194.8 194.8">
  <!-- Generator: Adobe Illustrator 30.6.0, SVG Export Plug-In . SVG Version: 2.1.4 Build 109)  -->
  <defs>
    <style>
      .st0 {
        fill: #fff;
      }
    </style>
  </defs>
  <path class="st0" d="M78.1,131.3h-18.1s0-69,0-69h18.1s0,69,0,69Z"/>
  <path class="st0" d="M134.9,131.3h-15.7s0-5.9,0-5.9c-3.4,4.8-8.2,7.2-14.3,7.2-6.7,0-12-2.4-16.1-7.3-4.1-4.8-6.1-11.3-6.1-19.3,0-7.8,2-14.1,5.9-18.8,3.9-4.7,9.1-7.1,15.5-7.1,6.1,0,10.9,2.4,14.4,7.1v-24.8s16.4,0,16.4,0v69ZM101.8,96.2c-1.7,2.3-2.6,5.6-2.6,9.9s.9,7.6,2.6,9.9c1.7,2.3,4.2,3.5,7.3,3.5s5.6-1.2,7.4-3.5c1.7-2.3,2.6-5.6,2.6-9.8,0-4.2-.9-7.5-2.7-9.9-1.8-2.4-4.2-3.6-7.3-3.6s-5.6,1.2-7.3,3.5Z"/>
</svg>